<?xml version="1.0" encoding="UTF-8" standalone="no"?>
<svg
   xmlns:dc="http://purl.org/dc/elements/1.1/"
   xmlns:cc="http://creativecommons.org/ns#"
   xmlns:rdf="http://www.w3.org/1999/02/22-rdf-syntax-ns#"
   xmlns:svg="http://www.w3.org/2000/svg"
   xmlns="http://www.w3.org/2000/svg"
   xmlns:sodipodi="http://sodipodi.sourceforge.net/DTD/sodipodi-0.dtd"
   xmlns:inkscape="http://www.inkscape.org/namespaces/inkscape"
   version="1.0"
   height="90"
   width="330"
   id="svg2"
   inkscape:version="0.91 r13725"
   sodipodi:docname="Maxwell_diagram.svg">
  <sodipodi:namedview
     pagecolor="#ffffff"
     bordercolor="#666666"
     borderopacity="1"
     objecttolerance="10"
     gridtolerance="10"
     guidetolerance="10"
     inkscape:pageopacity="0"
     inkscape:pageshadow="2"
     inkscape:window-width="1366"
     inkscape:window-height="715"
     id="namedview34"
     showgrid="false"
     inkscape:zoom="2"
     inkscape:cx="145.72192"
     inkscape:cy="47.834681"
     inkscape:window-x="1912"
     inkscape:window-y="-8"
     inkscape:window-maximized="1"
     inkscape:current-layer="g3054" />
  <metadata
     id="metadata4">
    <rdf:RDF>
      <cc:Work
         rdf:about="">
        <dc:format>image/svg+xml</dc:format>
        <dc:type
           rdf:resource="http://purl.org/dc/dcmitype/StillImage" />
        <cc:license
           rdf:resource="http://web.resource.org/cc/PublicDomain" />
        <dc:title />
      </cc:Work>
      <cc:License
         rdf:about="http://web.resource.org/cc/PublicDomain">
        <cc:permits
           rdf:resource="http://web.resource.org/cc/Reproduction" />
        <cc:permits
           rdf:resource="http://web.resource.org/cc/Distribution" />
        <cc:permits
           rdf:resource="http://web.resource.org/cc/DerivativeWorks" />
      </cc:License>
    </rdf:RDF>
  </metadata>
  <defs
     id="defs6" />
  <g
     id="g3054">
    <path
       d="m 278.49,61.561 c -3.81,0.092 -9.06,1.003 -11.14,-3.107 -1.83,-3.512 -3.27,-7.697 -6.55,-10.115 -5.37,-1.94 -8.21,4.373 -8.61,8.7 -1.49,2.854 -0.73,11.52 3.78,7.696 2.89,-4.047 0.73,-9.309 -1.32,-13.22 -1.52,-3.573 -6.66,-4.882 -8.96,-1.363 -2.66,3.714 -3.34,8.591 -3,13.043 0.21,4.962 5.7,1.999 5.39,-1.482 0.55,-4.054 -1.41,-7.879 -3.09,-11.421 -3.18,-4.621 -9.8,-1.452 -10.21,3.538 -0.77,3.577 -3.17,10.083 0.87,12.093 4.98,-1.322 3.55,-7.954 2.18,-11.543 -0.81,-5.025 -6.93,-8.986 -10.65,-4.077 -2.26,4.504 -3.56,10.115 -1.88,15.064 3.49,2.577 5.91,-4.817 4.49,-7.817 -1.03,-3.811 -2.85,-9.258 -7.48,-9.554 -4.24,0.479 -5.85,5.249 -6.49,8.87 -1.39,2.849 -0.88,11.489 3.75,8.083 3.03,-4.472 0.72,-10.115 -1.76,-14.264 -1.78,-3.95 -7.76,-3.111 -9.4,0.541 -1.09,3.619 -2.67,7.381 -2.19,11.244 0.22,5.363 6.52,2.635 5.69,-1.576 0.16,-3.981 -1.35,-8.065 -3.94,-11.081 -3.01,-3.866 -7.92,-1.088 -9.05,2.804 -1.67,3.68 -1.85,7.847 -1.46,11.815 3.46,4.799 7.07,-4.007 4.94,-7.096 -0.78,-3.01 -2.14,-7.339 -5.9,-7.331 -4.77,1.171 -5.17,7.152 -8.16,10.301 -2.61,2.52 -6.58,0.927 -9.79,1.255"
       style="fill:none;stroke:#000000;stroke-width:3.07520008"
       id="path10"
       inkscape:connector-curvature="0" />
    <path
       d="m 90.523,46.569 0,30.368"
       style="fill:none;stroke:#000000;stroke-width:3.07520008"
       id="path12"
       inkscape:connector-curvature="0" />
    <path
       d="m 90.523,61.561 -39.017,0"
       style="fill:none;stroke:#000000;stroke-width:3.07520008"
       id="path14"
       inkscape:connector-curvature="0" />
    <path
       d="m 119.93,61.561 31.52,0"
       style="fill:none;stroke:#000000;stroke-width:3.07520008"
       id="path16"
       inkscape:connector-curvature="0" />
    <path
       d="m 75.531,43.494 c 12.889,0.063 25.779,-0.13 38.669,0.101 2.54,-0.183 5.87,0.755 5.57,3.904 0.42,4.014 -0.01,8.055 0.15,12.081 -0.01,5.704 0.1,11.416 -0.13,17.113 -0.62,3.06 -4.3,3.153 -6.8,3.062 -8.61,0.153 -17.217,-0.002 -25.828,0.065 -3.877,0 -7.754,0 -11.631,0"
       style="fill:none;stroke:#000000;stroke-width:3.07520008"
       id="path18"
       inkscape:connector-curvature="0" />
    <circle
       transform="matrix(0.1922,0,0,0.1922,-75.538,-83.55)"
       cx="472"
       cy="755"
       r="47"
       style="fill:none;stroke:#000000;stroke-width:16"
       id="circle20"
       sodipodi:cx="472"
       sodipodi:cy="755"
       sodipodi:rx="47"
       sodipodi:ry="47" />
    <circle
       transform="matrix(0.1922,0,0,0.1922,-75.538,-83.55)"
       cx="2031"
       cy="755"
       r="47"
       style="fill:none;stroke:#000000;stroke-width:16"
       id="circle22"
       sodipodi:cx="2031"
       sodipodi:cy="755"
       sodipodi:rx="47"
       sodipodi:ry="47" />
    <path
       d="m 24.214,61.561 c 9.097,0 18.195,0 27.292,0"
       style="fill:none;stroke:#000000;stroke-width:3.07520008"
       id="path24"
       inkscape:connector-curvature="0" />
    <path
       d="m 151.45,61.561 27.1,0"
       style="fill:none;stroke:#000000;stroke-width:3.07520008"
       id="path26"
       inkscape:connector-curvature="0" />
    <path
       d="m 278.49,61.561 27.3,0"
       style="fill:none;stroke:#000000;stroke-width:3.07520008"
       id="path28"
       inkscape:connector-curvature="0" />
    <text
       sodipodi:linespacing="125%"
       id="text3023"
       y="32.751701"
       x="216.48273"
       style="font-style:normal;font-weight:normal;font-size:40px;line-height:125%;font-family:Sans;-inkscape-font-specification:Sans;letter-spacing:0px;word-spacing:0px;fill:#000000;fill-opacity:1;stroke:none"
       xml:space="preserve"><tspan
         style="font-style:italic;font-size:30px;-inkscape-font-specification:'Sans Italic'"
         y="32.751701"
         x="216.48273"
         id="tspan3025"
         sodipodi:role="line">k</tspan></text>
    <text
       sodipodi:linespacing="125%"
       id="text3046"
       y="21.898584"
       x="35.218159"
       style="font-size:40px;font-style:normal;font-weight:normal;line-height:125%;letter-spacing:0px;word-spacing:0px;fill:#000000;fill-opacity:1;stroke:none;font-family:Sans;-inkscape-font-specification:Sans"
       xml:space="preserve"><tspan
         id="tspan3048"
         sodipodi:role="line" /></text>
    <text
       sodipodi:linespacing="125%"
       id="text3050"
       y="31.181084"
       x="88.658195"
       style="font-style:normal;font-weight:normal;font-size:40px;line-height:125%;font-family:Sans;-inkscape-font-specification:Sans;letter-spacing:0px;word-spacing:0px;fill:#000000;fill-opacity:1;stroke:none"
       xml:space="preserve"><tspan
         style="font-style:italic;font-size:30px;-inkscape-font-specification:'Sans Italic'"
         y="31.181084"
         x="88.658195"
         id="tspan3052"
         sodipodi:role="line">c</tspan></text>
  </g>
</svg>
