<?xml version="1.0" encoding="UTF-8" standalone="no"?>
<svg
   xmlns:dc="http://purl.org/dc/elements/1.1/"
   xmlns:cc="http://creativecommons.org/ns#"
   xmlns:rdf="http://www.w3.org/1999/02/22-rdf-syntax-ns#"
   xmlns:svg="http://www.w3.org/2000/svg"
   xmlns="http://www.w3.org/2000/svg"
   xmlns:sodipodi="http://sodipodi.sourceforge.net/DTD/sodipodi-0.dtd"
   xmlns:inkscape="http://www.inkscape.org/namespaces/inkscape"
   version="1.0"
   height="240"
   width="300"
   id="svg2"
   inkscape:version="0.91 r13725"
   sodipodi:docname="Zener_Kelvin_diagram.svg">
  <sodipodi:namedview
     pagecolor="#ffffff"
     bordercolor="#666666"
     borderopacity="1"
     objecttolerance="10"
     gridtolerance="10"
     guidetolerance="10"
     inkscape:pageopacity="0"
     inkscape:pageshadow="2"
     inkscape:window-width="1920"
     inkscape:window-height="1027"
     id="namedview24"
     showgrid="false"
     inkscape:zoom="2"
     inkscape:cx="129.66753"
     inkscape:cy="120"
     inkscape:window-x="-8"
     inkscape:window-y="61"
     inkscape:window-maximized="1"
     inkscape:current-layer="svg2" />
  <metadata
     id="metadata4">
    <rdf:RDF>
      <cc:Work
         rdf:about="">
        <dc:format>image/svg+xml</dc:format>
        <dc:type
           rdf:resource="http://purl.org/dc/dcmitype/StillImage" />
        <cc:license
           rdf:resource="http://web.resource.org/cc/PublicDomain" />
        <dc:title />
      </cc:Work>
      <cc:License
         rdf:about="http://web.resource.org/cc/PublicDomain">
        <cc:permits
           rdf:resource="http://web.resource.org/cc/Reproduction" />
        <cc:permits
           rdf:resource="http://web.resource.org/cc/Distribution" />
        <cc:permits
           rdf:resource="http://web.resource.org/cc/DerivativeWorks" />
      </cc:License>
    </rdf:RDF>
  </metadata>
  <defs
     id="defs6" />
  <path
     style="fill:none;stroke:#000000;stroke-width:3.31200004"
     d="m 65.751168,74.599455 c 4.72,-0.053 11.4,0.736 12.93,-4.934 2.08,-3.706 3.78,-9.798 8.83,-9.941 5.01,0.994 6.67,6.832 7.14,11.245 0.79,2.935 0.32,10.858 -4.25,7.168 -2.43,-2.804 -1.63,-7.033 -0.6,-10.293 1.22,-2.777 2.43,-6.068 5.15,-7.656 4.46,-1.731 8.240002,3.096 8.810002,7.092 0.18,3.658 3.22,11.389 -2.53,11.619 -3.870002,-2.494 -2.750002,-7.784 -1.540002,-11.461 0.680002,-4.587 6.440002,-10.261 10.780002,-6.165 3.63,4.725 4.34,11.074 3.54,16.828 -4.9,3.794 -7.05,-5.465 -5.13,-8.879 1.2,-4.157 4.72,-11.675 10.08,-8.795 4.28,3.12 4.92,8.897 5.4,13.776 0.76,4.069 -3.8,7.255 -5.55,2.442 -2.04,-5.002 0.58,-10.504 3.38,-14.646 3.34,-4.798 9.39,-0.773 10.38,3.729 1.03,4.109 2.5,8.863 0.5,12.9 -4.99,2.254 -5.81,-5.712 -4.66,-8.96 1.3,-3.76 2.85,-9.527 7.54,-9.934 4.68,0.47 7.02,5.686 7.32,9.871 0.74,2.9 1.3,11.913 -3.66,8.816 -3.49,-3.787 -1.58,-9.392 0.32,-13.495 1.2,-3.622 5.95,-7.106 9.22,-3.779 3.94,3.534 3.96,9.279 4.45,14.133 0.23,5.099 -5.72,4.726 -5.86,0.008 -1.05,-4.612 1,-9.415 4.07,-12.815 3.82,-1.669 6.81,2.284 8.18,5.364 1.21,4.62 5.25,8.053 10.21,6.852 1.11,-0.047 2.4,-0.109 3.46,-0.09"
     id="path10" />
  <path
     style="fill:none;stroke:#000000;stroke-width:3.31200004"
     d="m 120.30117,155.95345 v 32.91"
     id="path12" />
  <path
     style="fill:none;stroke:#000000;stroke-width:3.50577188"
     d="m 122.50061,172.30345 h 47.08068"
     id="path14" />
  <path
     style="fill:none;stroke:#000000;stroke-width:3.31388998"
     d="m 89.071168,172.27345 h -25.17"
     id="path16" />
  <path
     style="fill:none;stroke:#000000;stroke-width:3.31200004"
     d="m 136.44117,152.84345 c -13.68,0.02 -27.35,-0.04 -41.030002,0.03 -2.19,0.42 -5.76,-0.28 -6.34,2.67 -0.87,3.56 -0.24,7.25 -0.43,10.87 0.06,7.34 -0.21,14.69 0.19,22.02 0.36,3.11 3.75,3.26 6.18,3.43 4.85,0.3 9.710002,-0.04 14.570002,0.1 8.95,0 17.91,0 26.86,0"
     id="path18" />
  <path
     style="fill:none;stroke:#000000;stroke-width:3.05455327"
     d="m 177.41024,124.44813 c 3.57406,-0.0507 8.76897,0.6384 10.72219,-3.89124 1.3321,-4.09392 2.87067,-9.15052 6.59583,-10.78201 3.5237,-0.90188 5.70188,3.68858 6.4548,7.17449 0.59596,3.14138 1.02488,6.46515 0.69081,9.65719 -1.67288,4.78299 -5.67083,0.45601 -4.94141,-3.28324 -0.0546,-4.62086 1.61244,-9.20118 4.0735,-12.62629 2.97726,-2.86777 6.97438,0.49654 7.96484,4.24592 0.65471,3.73925 1.63679,7.63049 1.04083,11.49134 -2.03969,5.999 -6.44474,-1.75309 -4.81551,-5.46193 0.64381,-4.30672 1.91966,-9.52546 5.79758,-10.98467 3.73523,-1.50989 5.76652,3.46564 6.55553,7.00222 0.70508,3.53658 1.24228,7.48863 0.20145,10.97454 -3.46662,3.10082 -5.84206,-4.50939 -4.16331,-7.85344 0.77223,-4.29658 2.51813,-9.53558 6.4632,-10.55906 3.87792,0.13173 5.55668,5.46193 6.13585,9.39372 0.43647,3.1515 1.85502,10.91372 -2.65243,9.54571 -3.65969,-2.8475 -1.93896,-9.03904 -0.47845,-12.91002 0.88135,-3.94192 4.28082,-7.79265 7.67191,-4.95527 2.61885,1.66189 3.23999,5.2998 3.68486,8.49184 1.51088,3.18191 0.22663,12.61615 -3.68486,8.38038 -2.18238,-4.70194 -0.41969,-10.40708 1.66196,-14.68339 2.41741,-5.37073 8.74631,-3.08057 9.41781,2.55362 0.55399,4.25607 3.24839,11.96762 -0.8142,13.73084 -4.07097,-0.34453 -3.39947,-9.41397 -1.61999,-13.30522 0.9401,-4.04325 4.77605,-8.1777 8.11677,-5.00594 3.23999,3.17177 3.12248,8.65397 3.91149,13.14311 1.05762,4.53978 -4.42351,7.18461 -4.98589,1.89496 -0.93171,-4.78301 0.45326,-10.43748 3.61771,-13.58898 4.42352,-2.42189 6.22818,5.24914 7.8062,8.76545 1.97254,4.79313 6.56393,3.29337 10.15646,3.44537"
     id="path20" />
  <circle
     style="fill:none;stroke:#000000;stroke-width:3.31200004"
     r="9.7290001"
     cy="123.45145"
     cx="277.44418"
     id="circle34" />
  <circle
     style="fill:none;stroke:#000000;stroke-width:3.31200004"
     r="9.7290001"
     cy="123.45145"
     cx="22.555832"
     id="circle36" />
  <path
     style="fill:none;stroke:#000000;stroke-width:3.31200004"
     d="m 168.38117,74.599455 h 9.94 v 97.703995 h -9.94"
     id="path38" />
  <path
     style="fill:none;stroke:#000000;stroke-width:2.95488405"
     d="M 55.379031,123.45346 H 31.982099"
     id="path46" />
  <path
     style="fill:none;stroke:#000000;stroke-width:3.31200004"
     d="m 66.770168,74.599455 h -9.729 v 97.703995 h 9.729"
     id="path48" />
  <text
     xml:space="preserve"
     style="font-style:italic;font-weight:normal;line-height:0%;font-family:'Times New Roman';-inkscape-font-specification:'Times New Roman, Italic';letter-spacing:0px;word-spacing:0px;fill:#000000;fill-opacity:1;stroke:none;font-stretch:normal;font-variant:normal;font-size:40px;text-anchor:start;text-align:start;writing-mode:lr;"
     x="107.08926"
     y="35.945183"
     id="text3007"
     sodipodi:linespacing="0%"><tspan
       id="tspan3009"
       x="107.08926"
       y="35.945183"
       style="font-style:italic;font-size:40px;line-height:0%;font-family:'Times New Roman';-inkscape-font-specification:'Times New Roman, Italic';font-weight:normal;font-stretch:normal;font-variant:normal;text-anchor:start;text-align:start;writing-mode:lr;">k</tspan></text>
  <text
     xml:space="preserve"
     style="font-style:italic;font-weight:normal;line-height:0%;font-family:'Times New Roman';-inkscape-font-specification:'Times New Roman, Italic';letter-spacing:0px;word-spacing:0px;fill:#000000;fill-opacity:1;stroke:none;font-stretch:normal;font-variant:normal;font-size:40px;text-anchor:start;text-align:start;writing-mode:lr;"
     x="215.02356"
     y="85.773758"
     id="text3007-8"
     sodipodi:linespacing="0%"><tspan
       id="tspan3009-4"
       x="215.02356"
       y="85.773758"
       style="font-style:italic;font-size:40px;line-height:0%;font-family:'Times New Roman';-inkscape-font-specification:'Times New Roman, Italic';font-weight:normal;font-stretch:normal;font-variant:normal;text-anchor:start;text-align:start;writing-mode:lr;">k</tspan></text>
  <text
     xml:space="preserve"
     style="font-style:italic;font-weight:normal;line-height:0%;font-family:'Times New Roman';-inkscape-font-specification:'Times New Roman, Italic';letter-spacing:0px;word-spacing:0px;fill:#000000;fill-opacity:1;stroke:none;font-stretch:normal;font-variant:normal;font-size:40px;text-anchor:start;text-align:start;writing-mode:lr;"
     x="104.71275"
     y="221.28529"
     id="text3032"
     sodipodi:linespacing="0%"><tspan
       id="tspan3034"
       x="104.71275"
       y="221.28529"
       style="font-style:italic;font-size:40px;line-height:0%;font-family:'Times New Roman';-inkscape-font-specification:'Times New Roman, Italic';font-weight:normal;font-stretch:normal;font-variant:normal;text-anchor:start;text-align:start;writing-mode:lr;">c</tspan></text>
  <text
     id="text3747"
     x="232.72835"
     y="97.302902"
     style="font-style:normal;font-weight:normal;font-size:30px;line-height:0%;font-family:'Times New Roman';text-anchor:start;fill:#000000;stroke:#000000;stroke-width:0.00518in;-inkscape-font-specification:'Times New Roman, Normal';font-stretch:normal;font-variant:normal;text-align:start;writing-mode:lr;"
     sodipodi:linespacing="0%">1</text>
  <text
     id="text3763"
     x="124.37525"
     y="46.54232"
     style="font-style:normal;font-weight:normal;font-size:30px;line-height:0%;font-family:'Times New Roman';text-anchor:start;fill:#000000;stroke:#000000;stroke-width:0.00518in;-inkscape-font-specification:'Times New Roman, Normal';font-stretch:normal;font-variant:normal;text-align:start;writing-mode:lr;"
     sodipodi:linespacing="0%">2</text>
</svg>
